<svg width="101" height="27" viewBox="0 0 101 27" fill="none" xmlns="http://www.w3.org/2000/svg">
<path d="M8.93918 4.82082C8.92834 6.66521 7.44033 8.21629 5.56949 8.23068C3.69864 8.24508 2.18716 6.71739 2.14743 4.873C2.12034 3.49646 -0.0286046 3.50906 0.000288764 4.891C0.0490463 7.22122 1.50636 9.24015 3.69142 10.0517C5.81147 10.8398 8.36853 10.1345 9.79334 8.38903C10.6294 7.36337 11.0809 6.12898 11.0881 4.80462C11.0953 3.42628 8.9464 3.44248 8.93918 4.82082Z" fill="white"/>
<path d="M5.58756 16.6303C6.53703 16.6303 7.30672 15.8633 7.30672 14.9173C7.30672 13.9712 6.53703 13.2042 5.58756 13.2042C4.6381 13.2042 3.86841 13.9712 3.86841 14.9173C3.86841 15.8633 4.6381 16.6303 5.58756 16.6303Z" fill="white"/>
<path d="M15.0412 16.5583C15.9906 16.5583 16.7603 15.7914 16.7603 14.8453C16.7603 13.8992 15.9906 13.1323 15.0412 13.1323C14.0917 13.1323 13.322 13.8992 13.322 14.8453C13.322 15.7914 14.0917 16.5583 15.0412 16.5583Z" fill="white"/>
<path d="M13.7608 21.4491C13.75 23.2935 12.262 24.8446 10.3911 24.859C8.52027 24.8734 7.00879 23.3457 6.96906 21.5013C6.94016 20.1247 4.79122 20.1373 4.82011 21.5175C4.86887 23.8477 6.32618 25.8666 8.51124 26.6782C10.6313 27.4663 13.1884 26.7609 14.6132 25.0155C15.4493 23.9899 15.9007 22.7555 15.9079 21.4311C15.917 20.0546 13.768 20.0708 13.7608 21.4491Z" fill="white"/>
<path d="M13.6362 5.49921C13.5983 3.65482 12.0868 2.12713 10.2159 2.14153C8.34507 2.15592 6.85706 3.70701 6.84623 5.55139C6.83901 6.92793 4.69006 6.94952 4.69728 5.56759C4.70992 3.23556 6.13473 1.19684 8.30896 0.349325C10.4164 -0.471202 12.9843 0.194576 14.4362 1.9184C15.2885 2.93146 15.758 4.15686 15.7869 5.48121C15.814 6.85955 13.6669 6.87755 13.6362 5.49921Z" fill="white"/>
<path d="M33.3649 17.0676C33.3595 16.3892 33.1157 15.8674 32.6335 15.5021C32.1514 15.1386 31.2846 14.7733 30.0331 14.4081C28.7817 14.0428 27.7848 13.6325 27.0427 13.1791C25.6233 12.3064 24.9082 11.1584 24.8973 9.73683C24.8883 8.49164 25.3885 7.46239 26.4016 6.64906C27.4128 5.83573 28.7329 5.42187 30.3582 5.40927C31.4363 5.40027 32.4006 5.59101 33.2475 5.98148C34.0944 6.37195 34.7626 6.92976 35.252 7.65852C35.7396 8.38728 35.9888 9.19701 35.9942 10.0877L33.3107 10.1075C33.3053 9.30137 33.0453 8.67158 32.5342 8.21993C32.0231 7.76828 31.2954 7.54516 30.3509 7.55236C29.4715 7.55955 28.7889 7.75209 28.3049 8.12996C27.821 8.50784 27.5826 9.03326 27.588 9.70624C27.5916 10.2712 27.8589 10.7427 28.3862 11.117C28.9135 11.4912 29.7821 11.8529 30.992 12.2002C32.2019 12.5475 33.1735 12.947 33.9084 13.3986C34.6434 13.8485 35.1834 14.3685 35.5283 14.9569C35.8732 15.5453 36.0484 16.2345 36.0556 17.0262C36.0664 18.3128 35.5788 19.3402 34.5947 20.1086C33.6105 20.8769 32.2705 21.2674 30.5731 21.28C29.4516 21.289 28.4187 21.0892 27.4761 20.6826C26.5316 20.2759 25.7966 19.7109 25.2693 18.9857C24.742 18.2606 24.4748 17.4149 24.4675 16.445L27.1618 16.4234C27.1691 17.2997 27.4652 17.9781 28.0503 18.4531C28.6354 18.93 29.4715 19.1639 30.5586 19.1549C31.4958 19.1477 32.1983 18.9534 32.6678 18.5719C33.1373 18.1922 33.3703 17.6902 33.3649 17.0676Z" fill="white"/>
<path d="M41.5525 6.71381L41.5742 9.50468L43.6075 9.48848L43.622 11.3976L41.5886 11.4138L41.6392 17.8215C41.6428 18.2606 41.7313 18.5755 41.9083 18.7698C42.0834 18.9623 42.3958 19.0577 42.8419 19.0541C43.1398 19.0523 43.4414 19.0145 43.7466 18.9407L43.7628 20.9345C43.1741 21.1018 42.6071 21.1882 42.0618 21.1918C40.0735 21.208 39.0731 20.1229 39.055 17.9367L39.0045 11.4336L37.1102 11.448L37.0957 9.53887L38.99 9.52447L38.9684 6.7336L41.5525 6.71381Z" fill="white"/>
<path d="M50.9646 21.1234C49.3249 21.136 47.9922 20.6322 46.9647 19.6101C45.939 18.5899 45.4189 17.2223 45.4044 15.5111L45.4026 15.1926C45.3936 14.0464 45.6085 13.0207 46.0437 12.1156C46.4789 11.2105 47.0983 10.5034 47.8965 9.99593C48.6947 9.4867 49.5867 9.22939 50.5727 9.22219C52.142 9.2096 53.3573 9.69903 54.2205 10.6905C55.0837 11.682 55.5225 13.0891 55.537 14.9137L55.5442 15.9537L48.0175 16.0113C48.1023 16.9578 48.4256 17.7064 48.9872 18.2534C49.5488 18.8004 50.2513 19.0703 51.0964 19.0649C52.2811 19.0559 53.2436 18.5701 53.9821 17.611L55.3871 18.9264C54.9302 19.6155 54.3198 20.1535 53.5524 20.5368C52.7849 20.9201 51.9217 21.1144 50.9646 21.1234ZM50.58 11.2915C49.8703 11.2969 49.2996 11.5488 48.8662 12.0472C48.4328 12.5457 48.1601 13.2367 48.0464 14.122L52.9763 14.0842L52.9745 13.8934C52.9113 13.0315 52.6747 12.3801 52.2666 11.9411C51.8585 11.502 51.2951 11.2861 50.58 11.2915Z" fill="white"/>
<path d="M67.8998 17.2259L69.6695 9.28697L72.1922 9.26718L69.1404 20.7707L67.0113 20.7869L64.4795 12.9236L62.1139 20.8247L59.9848 20.8409L56.7433 9.38594L59.266 9.36615L61.1893 17.1917L63.4917 9.33376L65.4402 9.31936L67.8998 17.2259Z" fill="white"/>
<path d="M81.113 20.6772C80.9974 20.4594 80.8963 20.1032 80.806 19.6083C79.9897 20.4702 78.9839 20.9057 77.792 20.9147C76.6345 20.9237 75.6882 20.6016 74.9515 19.9502C74.2147 19.2988 73.8427 18.4873 73.8355 17.5192C73.8264 16.2956 74.2743 15.3528 75.1808 14.6924C76.0873 14.032 77.3893 13.6937 79.085 13.6811L80.6705 13.6685L80.6651 12.9146C80.6597 12.3208 80.49 11.8457 80.1541 11.4912C79.8182 11.1368 79.3089 10.9622 78.6281 10.9676C78.0394 10.973 77.5573 11.1224 77.1835 11.4193C76.8097 11.7162 76.6237 12.0904 76.6273 12.5421L74.0395 12.5619C74.0341 11.9321 74.24 11.3419 74.6535 10.7913C75.0688 10.2407 75.6341 9.8052 76.3528 9.48851C77.0715 9.17181 77.8733 9.00987 78.76 9.00267C80.1089 8.99187 81.187 9.32116 81.9942 9.99054C82.8014 10.6599 83.2204 11.6064 83.2511 12.83L83.2908 18.0069C83.298 19.0397 83.4497 19.862 83.7459 20.4756L83.7477 20.6556L81.113 20.6772ZM78.2561 18.8436C78.7672 18.84 79.2475 18.7122 79.6954 18.4603C80.145 18.2102 80.4809 17.8737 80.7049 17.4545L80.6886 15.2898L79.2945 15.3006C78.3356 15.3078 77.6169 15.4805 77.1365 15.8152C76.6562 16.1517 76.4196 16.6231 76.4232 17.2313C76.4268 17.7262 76.5948 18.1202 76.927 18.4099C77.2593 18.705 77.7036 18.8472 78.2561 18.8436Z" fill="white"/>
<path d="M92.2062 11.4678C91.8649 11.4139 91.5128 11.3887 91.1516 11.3905C89.967 11.3995 89.1706 11.8583 88.7661 12.767L88.8275 20.6178L86.2397 20.6376L86.1512 9.15921L88.6216 9.13941L88.6957 10.4224C89.3133 9.42012 90.1746 8.91449 91.2816 8.90729C91.65 8.90369 91.957 8.95228 92.199 9.04944L92.2062 11.4678Z" fill="white"/>
<path d="M97.7917 6.28018L97.8133 9.07105L99.8467 9.05486L99.863 10.964L97.8296 10.9802L97.8802 17.3879C97.8838 17.8269 97.9723 18.1418 98.1492 18.3362C98.3244 18.5287 98.6368 18.6241 99.0828 18.6205C99.3808 18.6187 99.6824 18.5809 99.9876 18.5071L100.004 20.5008C99.4151 20.6682 98.8481 20.7546 98.3027 20.7581C96.3145 20.7743 95.3141 19.6893 95.296 17.503L95.2454 11L93.3511 11.0144L93.3367 9.10524L95.231 9.09084L95.2093 6.29997L97.7917 6.28018Z" fill="white"/>
</svg>
